<?xml version="1.0" encoding="UTF-8"?>
<svg id="Layer_1" data-name="Layer 1" xmlns="http://www.w3.org/2000/svg" viewBox="0 0 210 210">
  <defs>
    <style>
      .cls-1 {
        fill: #00e013;
        fill-rule: evenodd;
      }
    </style>
  </defs>
  <path class="cls-1" d="M206.4,30.4c-4.4-12.4-14.21-22.2-26.61-26.7C168.48,0,158.07,0,136.87,0h-63.73C52.13,0,41.62,0,30.32,3.5,17.91,8,8.1,17.8,3.6,30.2,0,41.6,0,52.1,0,73.2v63.6c0,21.2,0,31.6,3.5,42.9,4.5,12.4,14.31,22.2,26.71,26.7,11.4,3.6,21.91,3.6,42.92,3.6h63.63c21.11,0,31.62,0,42.92-3.6,12.41-4.5,22.21-14.3,26.71-26.7,3.6-11.4,3.6-21.9,3.6-42.9v-63.5c0-21.1,0-31.6-3.6-42.9ZM151.47,71.9l-12.11,9.9c-1.1.9-2.6.7-3.4-.4-6.2-7.6-15.81-11.9-26.31-11.9-11.71,0-19.01,5.1-19.01,12.3-.2,6,5.5,9.2,23.01,13,22.11,4.7,32.21,13.9,32.21,29.4,0,19.4-15.81,33.7-40.52,35.3l-2.4,11.5c-.2,1.1-1.2,1.9-2.4,1.9h-19.01c-1.6,0-2.7-1.5-2.4-3l3-12.8c-12.21-3.5-22.11-10.3-27.81-18.6-.7-1.1-.5-2.5.5-3.3l13.21-10.3c1.1-.9,2.7-.6,3.5.5,7,9.8,17.81,15.6,30.82,15.6,11.71,0,20.51-5.7,20.51-13.9,0-6.3-4.4-9.2-19.31-12.3-25.41-5.5-35.52-14.9-35.52-30.4,0-18,15.11-31.5,37.92-33.3l2.5-11.9c.2-1.1,1.2-1.9,2.4-1.9h18.71c1.5,0,2.7,1.4,2.4,2.9l-2.9,13.3c9.8,3,17.81,8.4,22.81,15.1.8,1,.6,2.5-.4,3.3Z"/>
</svg>